# Apple ModelIO OBJ File: GlovesPainted
mtllib GlovesPainted.mtl
g Cube_Material
v 1 1 -2
v -1 1 -2
v -1 1 2
v 1 1 2
v -1 -1 2
v -1 -1 -2
v 1 -1 -2
v 1 -1 2
vn -0 1 -0
vn -1 -0 -0
vn -0 -1 -0
vn 1 -0 -0
vn -0 -0 -1
vn -0 -0 1
vt 0.857084 0.142916
vt 0.857084 0.0001
vt 0.9999 0.0001
vt 0.9999 0.142916
vt 0.571451 0.285733
vt 0.571451 0.142916
vt 0.714267 0.142916
vt 0.714267 0.285733
vt 0.857084 0.428549
vt 0.857084 0.285733
vt 0.9999 0.285733
vt 0.9999 0.428549
vt 0.0001 0.0001
vt 0.571251 0.0001
vt 0.571251 0.571251
vt 0.0001 0.571251
usemtl Material
f 1/1/1 2/2/1 3/3/1
f 1/1/1 3/3/1 4/4/1
f 5/5/2 3/6/2 2/7/2
f 5/5/2 2/7/2 6/8/2
f 6/9/3 7/10/3 8/11/3
f 6/9/3 8/11/3 5/12/3
f 7/10/4 1/1/4 4/4/4
f 7/10/4 4/4/4 8/11/4
f 6/8/5 2/7/5 1/1/5
f 6/8/5 1/1/5 7/10/5
f 8/13/6 4/14/6 3/15/6
f 8/13/6 3/15/6 5/16/6
s off
